<svg xmlns="http://www.w3.org/2000/svg" width="40" height="40"><g fill="none"><path fill="#DB3727" d="M8.41 2h23.18c2.23 0 3.04.23 3.85.67a4.54 4.54 0 0 1 1.9 1.89c.43.81.66 1.62.66 3.85v23.18c0 2.23-.23 3.04-.67 3.85a4.54 4.54 0 0 1-1.89 1.9c-.81.43-1.62.66-3.85.66H8.41c-2.23 0-3.04-.23-3.85-.67a4.54 4.54 0 0 1-1.9-1.89C2.24 34.63 2 33.82 2 31.6V8.41c0-2.23.23-3.04.67-3.85a4.54 4.54 0 0 1 1.89-1.9C5.37 2.24 6.18 2 8.4 2z"/><path fill="#FFF" d="M17.29 24.92a3.42 3.42 0 0 1-3.24 2.4 3.43 3.43 0 0 1-3.23-2.4h-.9a2.78 2.78 0 0 1-2.79-2.72v-2.1c0-1.15.65-2.7 1.5-3.58l2.3-2.3c.8-.81 2.3-1.46 3.5-1.46h5.55a6.1 6.1 0 0 1 3.53 1.3l2.03 1.73c.52.44 1.6.92 2.25 1l2.82.36a2.98 2.98 0 0 1 2.54 2.95v2.1c0 1.5-1.16 2.72-2.68 2.72H29.3a3.46 3.46 0 0 1-3.21 2.39 3.46 3.46 0 0 1-3.21-2.4H17.3zm8.79-4.55a3.4 3.4 0 0 1 3.24 2.46h1.15c.37 0 .64-.27.64-.63v-2.1a.92.92 0 0 0-.75-.88l-2.82-.36a7.27 7.27 0 0 1-3.3-1.47l-2.03-1.73a4.18 4.18 0 0 0-2.23-.82h-5.56a3.5 3.5 0 0 0-2.05.86l-2.3 2.3c-.47.5-.9 1.5-.9 2.1v2.1c0 .3.33.63.76.63h.86a3.42 3.42 0 0 1 3.26-2.48 3.42 3.42 0 0 1 3.26 2.48h5.53a3.4 3.4 0 0 1 3.24-2.46zm-12.03 4.85c.75 0 1.36-.63 1.36-1.4 0-.76-.6-1.39-1.36-1.39-.75 0-1.36.63-1.36 1.4 0 .76.61 1.39 1.36 1.39zm12.03-.02c.74 0 1.34-.62 1.34-1.38 0-.75-.6-1.37-1.34-1.37-.74 0-1.35.62-1.35 1.37 0 .76.6 1.38 1.35 1.38z"/></g></svg>