<svg width="32" height="32" fill="none" xmlns="http://www.w3.org/2000/svg"><mask id="a" style="mask-type:alpha" maskUnits="userSpaceOnUse" x="0" y="-1" width="32" height="33"><circle cx="16" cy="16" r="16" fill="#fff"/></mask><g mask="url(#a)"><path fill="url(#b)" d="M0 0h32v32H0z"/><path d="M22.38 5.06a9.5 9.5 0 0 0-2.98.36c-.93.32-1.72.9-2.14 1.9-.37.89-.5 1.36-.86 2.98-.17.79.24 1.5.97 1.7.74.2 1.52-.26 1.72-1 .33-1.43.4-1.8.64-2.4.1-.29.25-.45.56-.56a6.97 6.97 0 0 1 2.09-.22c.68 0 1.15.08 1.46.17.33.1.43.3.36.65l-.4 1.99a1.38 1.38 0 1 0 2.71.53c.2-1.04.44-2.07.5-2.82.08-1.2-.53-2.09-1.56-2.65a6.42 6.42 0 0 0-3.07-.63z" fill="#BD0C42"/><path d="M12.24 13.14a10098.96 10098.96 0 0 0 10.4 0c2.87 0 4.93 1.92 4.92 4.84 0 1.38-.14 3.53-.35 5.85a140 140 0 0 1-.98 8.17h-2.9c.46-2.96.83-5.93 1.1-8.92.19-1.95.31-3.32.3-4.83-.02-1.64-.75-2.35-2.31-2.35h-9.97c-2.28 0-3.76.17-4.73 2.44A42.53 42.53 0 0 0 5.05 32H2.2c.05-2.45.36-4.9.78-7.1a40.86 40.86 0 0 1 2.17-7.7c1.38-3.22 3.79-4.06 7.08-4.06z" fill="#FF6D3A"/><path d="M19.36 32h-2.88c.22-5.15 1.24-10.4 2.35-13.52a1.44 1.44 0 0 1 2.71.97c-1 2.8-1.96 7.7-2.18 12.55z" fill="#FF6D3A"/></g><defs><linearGradient id="b" x1="31.87" y1="-.14" x2=".38" y2="32.01" gradientUnits="userSpaceOnUse"><stop stop-color="#FFEB75"/><stop offset=".92" stop-color="#FEE14A"/></linearGradient></defs></svg>