<svg xmlns="http://www.w3.org/2000/svg" width="40" height="40"><defs><linearGradient id="a" x1="368.64%" x2="30.43%" y1="46.13%" y2="50.24%"><stop offset="0%" stop-color="#FFD70C"/><stop offset="100%" stop-color="#FFCB03"/></linearGradient><linearGradient id="b" x1="0%" x2="99.99%" y1="50.02%" y2="50.02%"><stop offset="2.58%" stop-color="#FFD80E" stop-opacity="0"/><stop offset="100%" stop-color="#FAB50B"/></linearGradient></defs><g fill="none"><path fill="#FFCB03" d="M20.7.22a1.4 1.4 0 0 0-1.4 0L4.04 10.29c-.53.33-.7.86-.7 1.38v24.3c0 .48.37.86.86.86h9.2V20.18h13.02c.1 0 .17.07.17.17v16.48h9.2c.45 0 .87-.38.87-.86v-24.3c0-.52-.17-1.05-.7-1.38L20.69.22z"/><path fill="#EDA901" d="M13.4 20.18v16.65l6.34 3.13c.18.09.27 0 .27-.09V23.81c0-.26 0-.35-.36-.52l-6.25-3.11z"/><path fill="url(#a)" d="M.86 16.68h9.2v-.01H.77l.1.01z" transform="translate(3.33 20.16)"/><path fill="url(#b)" d="M0 8.17v7.64c0 .44.32.8.76.86h9.3V0L0 8.17z" transform="translate(3.33 20.16)"/></g></svg>