<svg width="16" height="16" xmlns="http://www.w3.org/2000/svg"><g transform="translate(.06 .06)" fill="none" fill-rule="evenodd"><path d="M0 7.94a7.96 7.96 0 0 1 15.89 0H0z" fill="#F33"/><ellipse fill="#E00000" cx="7.94" cy="7.94" rx="7.94" ry="1"/><path d="M7.68 6.95v1.99h-.03v4.43a9.12 9.12 0 0 0 .04.8v.05c.1.93.75 1.58 1.73 1.62.86.02 1.55-.48 1.72-1.25v-.03a2.69 2.69 0 0 0 .06-.5v-.11h-.57v.11a2.08 2.08 0 0 1-.03.38v.03c-.12.5-.57.82-1.16.8a1.16 1.16 0 0 1-1.18-1.1v-.05a8.58 8.58 0 0 1-.04-.75V8.94h.03V6.95a64.64 64.64 0 0 0-.56 0z" fill="#000" fill-rule="nonzero"/></g></svg>