<svg xmlns="http://www.w3.org/2000/svg" width="40" height="40"><defs><linearGradient id="a" x1="50%" x2="50%" y1="17.65%" y2="100%"><stop offset="0%" stop-color="#FFF"/><stop offset="100%" stop-color="#F5F5F5"/></linearGradient></defs><g fill="none" fill-rule="evenodd"><circle cx="20" cy="20" r="19" fill="#000" fill-rule="nonzero" opacity=".1"/><circle cx="20" cy="20" r="18" fill="url(#a)"/><path fill="#F33" fill-rule="nonzero" d="M22 21.68V33.5c0 .21-.93.38-2 .4-1.02-.02-2-.19-2-.4V21.68l-9.83-9.52c-.16-.15.34-.9 1.12-1.66.77-.77 1.53-1.26 1.68-1.1l9.02 8.7L29 9.4c.16-.16.9.33 1.68 1.1.78.77 1.3 1.5 1.15 1.66L22 21.68z"/></g></svg>