<svg width="40" height="40" fill="none" xmlns="http://www.w3.org/2000/svg"><path d="M0 14.22c0-4.98 0-7.47.97-9.37A8.89 8.89 0 0 1 4.85.97C6.75 0 9.25 0 14.22 0h11.56c4.98 0 7.47 0 9.37.97a8.89 8.89 0 0 1 3.88 3.88c.97 1.9.97 4.4.97 9.37v11.56c0 4.98 0 7.47-.97 9.37a8.89 8.89 0 0 1-3.88 3.88c-1.9.97-4.4.97-9.37.97H14.22c-4.98 0-7.47 0-9.37-.97a8.89 8.89 0 0 1-3.88-3.88C0 33.25 0 30.75 0 25.78V14.22z" fill="#FEF339"/><path d="M1.48 36.02a8.9 8.9 0 0 1-.51-.87C.35 33.93.13 32.48.05 30.3l10.57-3.74L19.06 0h6.72c1.96 0 3.53 0 4.84.06l-2.5 20.56L40 16.57v6.25L27.5 27.2 26.25 40h-5.94l1.25-10.94-6.25 2.19L12.5 40c-2.78-.01-4.66-.07-6.11-.42l2.05-6.14-6.96 2.58z" fill="#000"/><path d="M22.19 22.81l-4.69 1.57 6.56-20L22.2 22.8z" fill="#FEF339"/></svg>