<svg xmlns="http://www.w3.org/2000/svg" fill="none" height="20" viewBox="0 0 55 24"><path fill="url(#a)" d="M0 12C0 5.373 5.373 0 12 0h31c6.627 0 12 5.373 12 12s-5.373 12-12 12H12C5.373 24 0 18.627 0 12z"/><path fill="url(#b)" d="M0 12C0 5.373 5.373 0 12 0h31c6.627 0 12 5.373 12 12s-5.373 12-12 12H12C5.373 24 0 18.627 0 12z"/><path fill="#fff" d="M9.04 8.196h7.056V16.5H14.24V9.7h-3.344v6.8H9.04V8.196zm9.78 5.36c.118-.544.193-1.248.225-2.112a69.46 69.46 0 00.064-3.248h5.968V16.5H23.22V9.7h-2.416a52.328 52.328 0 01-.128 2.912c-.064.843-.198 1.557-.4 2.144-.192.576-.475 1.019-.848 1.328-.363.31-.854.464-1.472.464-.086 0-.171-.005-.256-.016a1.87 1.87 0 01-.24-.016v-1.728c.106.021.186.032.24.032a.853.853 0 00.688-.304c.181-.213.325-.533.432-.96zm19.207-1.216c0 .693-.102 1.307-.304 1.84a3.925 3.925 0 01-.848 1.36 3.53 3.53 0 01-1.264.832 4.184 4.184 0 01-1.568.288 4.25 4.25 0 01-1.44-.24 3.493 3.493 0 01-1.184-.704 4.033 4.033 0 01-.848-1.152 4.713 4.713 0 01-.432-1.568h-1.184V16.5h-1.856V8.196h1.856v3.296h1.216a4.407 4.407 0 01.448-1.472c.224-.437.506-.8.848-1.088.341-.299.73-.523 1.168-.672.437-.15.906-.224 1.408-.224.565 0 1.088.096 1.568.288.49.181.912.459 1.264.832.362.363.645.81.848 1.344.202.533.304 1.147.304 1.84zm-3.984 2.768a1.9 1.9 0 001.488-.672c.394-.448.592-1.147.592-2.096 0-.939-.198-1.632-.592-2.08a1.88 1.88 0 00-1.488-.688c-.587 0-1.078.224-1.472.672-.384.448-.576 1.147-.576 2.096 0 .95.192 1.648.576 2.096.394.448.885.672 1.472.672zm9.3 1.552c-.672 0-1.275-.096-1.808-.288a3.923 3.923 0 01-1.36-.848 3.805 3.805 0 01-.864-1.36c-.203-.533-.304-1.141-.304-1.824 0-.672.101-1.275.304-1.808a3.614 3.614 0 012.24-2.192 5.193 5.193 0 011.824-.304c.576 0 1.077.064 1.504.192.437.128.784.288 1.04.48v1.536a4.208 4.208 0 00-1.088-.496 4.614 4.614 0 00-1.344-.176c-1.718 0-2.576.923-2.576 2.768 0 1.845.842 2.768 2.528 2.768.544 0 1.008-.059 1.392-.176a5.602 5.602 0 001.088-.48v1.536a4.515 4.515 0 01-1.04.48c-.416.128-.928.192-1.536.192z"/><defs><radialGradient id="a" cx="0" cy="0" r="1" gradientTransform="rotate(156.425 27.5 5.739) scale(60.0083 66.5842)" gradientUnits="userSpaceOnUse"><stop stop-color="#48CCE0"/><stop offset=".288" stop-color="#428BEB"/><stop offset=".602" stop-color="#505ADD"/></radialGradient><radialGradient id="b" cx="0" cy="0" r="1" gradientTransform="matrix(55 0 0 68.0841 0 24)" gradientUnits="userSpaceOnUse"><stop stop-color="#FCAB14"/><stop offset=".159" stop-color="#FA6641"/><stop offset=".402" stop-color="#BE40C0"/><stop offset="1" stop-color="#505ADD" stop-opacity="0"/></radialGradient></defs></svg>