<svg xmlns="http://www.w3.org/2000/svg" fill="none" height="24" viewBox="0 0 24 24" width="24"><path clip-rule="evenodd" d="m8.41694 15.8158-.01638-.0031c-.42955-.0827-.87379.0262-1.21636.2983-.5406.4293-1.00638.7407-1.39733.9342.17355-.4274.28516-.8424.33481-1.2449.06332-.5133-.11045-1.0275-.47216-1.3971l-.15815-.1616c-1.08303-1.0362-1.69137-2.3974-1.69137-3.8416 0-3.0601 2.74584-5.6 6.2-5.6 3.4542 0 6.2 2.5399 6.2 5.6s-2.7458 5.6-6.2 5.6c-.54105 0-1.0715-.0624-1.58306-.1842zm-4.7072 3.1332c1.81382-.1462 3.24393-.6069 4.29033-1.3821.63922.1522 1.30936.2331 1.99993.2331 4.4183 0 8-3.3131 8-7.4 0-4.08691-3.5817-7.4-8-7.4-4.41828 0-8 3.31309-8 7.4 0 2.0761.92427 3.9525 2.41296 5.2964-.1306.9159-.50222 1.7305-1.11487 2.4438-.17658.2056-.15306.5154.05252.6919.09932.0853.22862.1274.35913.1169zm13.16586-1.2018c-1.2627.6737-3.0291 1.1537-5.5519 1.2392 1.0684.611 2.3277.9636 3.6761.9636 1.1462 0 2.2281-.2549 3.1831-.7066.8687.5188 1.9866.8334 3.3537.9438.1143.0093.2276-.0276.3147-.1023.1802-.1547.2009-.4262.0462-.6064-.6146-.716-.9517-1.5487-1.0114-2.4979.7047-1.0104 1.1137-2.2138 1.1137-3.5056 0-2.14-1.1224-4.03752-2.8523-5.21642.4646.93405.7724 1.98922.8969 3.15752.1285 1.2066.0944 2.1163-.0916 2.8567-.1165.5021-.3216.9909-.6105 1.4484l-.0263.0448c-.2822.4815-.3101 1.0708-.0748 1.5768.1124.2414.2555.4814.4295.72-.3161-.0691-.6888-.2181-1.1181-.4468-.4321-.2303-.9494-.2352-1.3858-.0131l-.093.0472c-.0654.0329-.1315.0654-.1982.0971z" fill="currentColor" fill-rule="evenodd"></path></svg>