<svg viewBox="0 0 54 20" fill="none" xmlns="http://www.w3.org/2000/svg"><path d="M11.908.93H0V19h3.146V3.374h5.616V19h3.146V.93z" fill="url(#paint0_linear_3_45034)"/><path d="M13.296 16.322l.183.13c.12.07.294.104.52.104.502 0 .832-.26.987-.78.156-.52.26-1.473.313-2.86l.26-6.994h8.865V19h-3.093V8.366h-3.146l-.182 4.68c-.052 1.439-.183 2.618-.39 3.536-.209.919-.555 1.595-1.04 2.028-.486.434-1.17.65-2.055.65-.364 0-.658-.043-.884-.13l-.338-.13v-2.678z" fill="url(#paint1_linear_3_45034)"/><path d="M50.802 19.26c-2.063 0-3.605-.58-4.628-1.742-1.005-1.178-1.508-2.86-1.508-5.044 0-1.335.225-2.513.676-3.536.45-1.023 1.118-1.82 2.002-2.392.901-.59 2.01-.884 3.328-.884.763 0 1.421.06 1.976.182.572.104 1.023.251 1.352.442v2.626c-.312-.19-.737-.373-1.274-.546a5.556 5.556 0 00-1.716-.26c-1.005 0-1.785.364-2.34 1.092-.537.71-.806 1.777-.806 3.198 0 1.352.243 2.427.728 3.224.485.798 1.283 1.196 2.392 1.196.659 0 1.23-.078 1.716-.234a4.57 4.57 0 001.3-.65v2.522c-.745.537-1.811.806-3.198.806z" fill="url(#paint2_linear_3_45034)"/><path fill-rule="evenodd" clip-rule="evenodd" d="M41.482 7.43c-1.04-1.179-2.392-1.768-4.056-1.768-1.473 0-2.713.468-3.718 1.404-1.005.919-1.62 2.262-1.846 4.03h-1.768V5.922H27V19h3.094v-5.46h1.742c.173 1.855.763 3.276 1.768 4.264 1.023.97 2.297 1.456 3.822 1.456 1.664 0 3.016-.58 4.056-1.742 1.057-1.178 1.586-2.869 1.586-5.07 0-2.184-.529-3.857-1.586-5.018zm-2.236 8.346c-.399.694-1.005 1.04-1.82 1.04-.815 0-1.43-.346-1.846-1.04-.399-.693-.598-1.794-.598-3.302 0-1.525.2-2.635.598-3.328.416-.693 1.031-1.04 1.846-1.04.815 0 1.421.347 1.82 1.04.416.693.624 1.794.624 3.302 0 1.525-.208 2.635-.624 3.328z" fill="url(#paint3_linear_3_45034)"/><defs><linearGradient id="paint0_linear_3_45034" x1="0" y1="8.873" x2="54" y2="8.873" gradientUnits="userSpaceOnUse"><stop stop-color="#8341EF"/><stop offset="1" stop-color="#3F68F9"/></linearGradient><linearGradient id="paint1_linear_3_45034" x1="0" y1="8.873" x2="54" y2="8.873" gradientUnits="userSpaceOnUse"><stop stop-color="#8341EF"/><stop offset="1" stop-color="#3F68F9"/></linearGradient><linearGradient id="paint2_linear_3_45034" x1="0" y1="8.873" x2="54" y2="8.873" gradientUnits="userSpaceOnUse"><stop stop-color="#8341EF"/><stop offset="1" stop-color="#3F68F9"/></linearGradient><linearGradient id="paint3_linear_3_45034" x1="0" y1="8.873" x2="54" y2="8.873" gradientUnits="userSpaceOnUse"><stop stop-color="#8341EF"/><stop offset="1" stop-color="#3F68F9"/></linearGradient></defs></svg>