<svg viewBox="0 0 28 28" fill="#000000" xmlns="http://www.w3.org/2000/svg" width="16" height="16" class="plus-points-counter__icon"><path fill-rule="evenodd" clip-rule="evenodd" d="M15.12 22.4L17.85 14H28C28 17.713 26.525 21.274 23.8995 23.8995C21.274 26.525 17.713 28 14 28C10.287 28 6.72599 26.525 4.10048 23.8995C1.47497 21.274 0 17.713 0 14C0 10.287 1.47497 6.72601 4.10048 4.1005C6.72599 1.475 10.287 0 14 0C15.4689 -8.76327e-06 16.9287 0.230691 18.326 0.683667L15.1364 10.5H5.81932L4.68068 14H14L11.27 22.4H15.12ZM18.9864 10.5L21.658 2.28201C24.5797 4.19098 26.684 7.12145 27.559 10.5H18.9864Z" fill="#000000"></path></svg>