<svg xmlns="http://www.w3.org/2000/svg" width="24" height="24" viewBox="0 0 24 24" fill="none"><path fill-rule="evenodd" clip-rule="evenodd" d="M22 12C22 17.5228 17.5228 22 12 22C6.47715 22 2 17.5228 2 12C2 6.47715 6.47715 2 12 2C17.5228 2 22 6.47715 22 12ZM20 12C20 16.4183 16.4183 20 12 20C7.58172 20 4 16.4183 4 12C4 7.58172 7.58172 4 12 4C16.4183 4 20 7.58172 20 12ZM10.75 16.2428C10.75 15.5202 11.2991 15 11.9928 15C12.7009 15 13.25 15.5202 13.25 16.2428C13.25 16.9653 12.7009 17.5 11.9928 17.5C11.2991 17.5 10.75 16.9653 10.75 16.2428ZM12.2248 6.5C10.0678 6.5 8.44995 7.74332 8.44995 9.75061V9.7749C8.44995 10.051 8.67381 10.2749 8.94995 10.2749H9.75319C9.99311 10.2749 10.1876 10.0804 10.1876 9.84049C10.1876 8.717 11.0564 8.11781 12.2248 8.11781C13.3633 8.11781 14.1123 8.717 14.1123 9.57085C14.1123 10.3798 13.6929 10.7543 12.6443 11.2336L12.3447 11.3684C11.4609 11.7579 11.1313 12.3421 11.1313 13.3607V13.5C11.1313 13.7761 11.3552 14 11.6313 14H12.369C12.6451 14 12.869 13.7761 12.869 13.5V13.4656C12.869 13.0162 12.9888 12.8364 13.3483 12.6717L13.6479 12.5368C14.9062 11.9676 15.85 11.2186 15.85 9.58583V9.49595C15.85 7.77328 14.352 6.5 12.2248 6.5Z" fill="currentColor"></path></svg>