<svg viewBox="0 0 72 72" fill="none" xmlns="http://www.w3.org/2000/svg"><rect width="72" height="72" rx="12" fill="#ADE9FF"/><path fill-rule="evenodd" clip-rule="evenodd" d="M57.986 31.617L57.682 20H29.128L27 47l23.689-6.35c6.675-1.93 7.297-6.116 7.297-9.033z" fill="#04E"/><path d="M24.5 59a4.5 4.5 0 100-9 4.5 4.5 0 000 9zM45.51 59a4.5 4.5 0 100-9 4.5 4.5 0 000 9z" fill="#000"/><path fill-rule="evenodd" clip-rule="evenodd" d="M33 19.429l-1.89-5.145A3.52 3.52 0 0027.806 12H15.073C13.928 12 13 12.863 13 14s.928 2 2.073 2h12.099l2.23 6H34l-1-2.571z" fill="#04E"/><path fill-rule="evenodd" clip-rule="evenodd" d="M19.11 14.284L21 19.429l.222.571h30.206l.214 11.617c0 2.917-1.43 5.332-4.104 6.547L27 47l-.297-.779L15.172 16h-3.099C10.928 16 10 15.137 10 14s.928-2 2.073-2h3.733a3.52 3.52 0 013.304 2.284z" fill="#07F"/></svg>