<?xml version="1.0" encoding="UTF-8"?>
<svg viewBox="0 0 24 24" version="1.1" xmlns="http://www.w3.org/2000/svg">
    <g stroke="none" stroke-width="1" fill="none" fill-rule="evenodd">
        <rect id="Rectangle-4" fill="#222222" x="0" y="0" width="24" height="24" rx="4"/>
        <path d="M19.952,7.677 C20.069,7.2865 19.952,7 19.395,7 L17.553,7 C17.0845,7 16.8685,7.2475 16.7515,7.521 C16.7515,7.521 15.8145,9.804 14.4875,11.2875 C14.058,11.7165 13.863,11.8535 13.629,11.8535 C13.512,11.8535 13.3425,11.7165 13.3425,11.3265 L13.3425,7.677 C13.3425,7.2085 13.2065,7 12.816,7 L9.921,7 C9.6285,7 9.4525,7.217 9.4525,7.423 C9.4525,7.867 10.116,7.9695 10.1845,9.2185 L10.1845,11.9315 C10.1845,12.526 10.077,12.634 9.843,12.634 C9.2185,12.634 7.6995,10.3405 6.7985,7.716 C6.6215,7.206 6.4445,7 5.974,7 L4.1315,7 C3.6055,7 3.5,7.2475 3.5,7.521 C3.5,8.0085 4.125,10.4285 6.408,13.629 C7.9305,15.815 10.075,17 12.0265,17 C13.1975,17 13.3425,16.7365 13.3425,16.283 L13.3425,14.6315 C13.3425,14.105 13.453,14 13.824,14 C14.0975,14 14.5655,14.1365 15.6585,15.1905 C16.9075,16.4395 17.1135,17 17.816,17 L19.658,17 C20.1845,17 20.4475,16.7365 20.2955,16.2175 C20.1295,15.6995 19.5335,14.9485 18.742,14.0585 C18.3125,13.551 17.6685,13.0045 17.4735,12.7315 C17.2005,12.38 17.2785,12.224 17.4735,11.912 C17.4735,11.912 19.718,8.75 19.952,7.677" fill="#FFFFFF"/>
    </g>
</svg>
