<svg xmlns="http://www.w3.org/2000/svg" width="100%" height="100%" viewBox="0 0 63 32" fill="none"><path fill-rule="evenodd" clip-rule="evenodd" d="M29.9051 15.9999C29.9051 24.258 23.2106 30.9524 14.9525 30.9524C6.69448 30.9524 0 24.258 0 15.9999C0 7.74184 6.69448 1.04736 14.9525 1.04736C13.8554 1.04736 12.7615 1.16813 11.6907 1.40747L12.3755 4.4709C7.09184 5.64678 3.14163 10.362 3.14163 15.9999C3.14163 22.5229 8.42959 27.8109 14.9526 27.8109C21.4757 27.8109 26.7636 22.5229 26.7636 15.9999L29.9051 15.9999ZM14.9525 1.04736C23.2106 1.04736 29.9051 7.74184 29.9051 15.9999C29.9051 14.9027 29.7843 13.8089 29.545 12.7381L26.4817 13.4228C25.3058 8.13915 20.5905 4.18891 14.9526 4.18891H14.9525V1.04736ZM14.9525 24.84C18.5907 24.84 21.7156 22.6422 23.0719 19.5018L20.1925 18.2464C19.3206 20.2773 17.3027 21.6997 14.9524 21.6997C12.627 21.6997 10.6268 20.3071 9.74034 18.3104L6.86104 19.5657C8.23191 22.6719 11.339 24.84 14.9525 24.84Z" fill="black"></path><path d="M35 4.42725V27.0157H38.8826V4.42725H35ZM42.0847 4.42725V27.0157H46.9928C53.1569 27.0157 57.5885 22.988 57.5885 15.6083C57.5885 7.28661 53.1898 4.42725 47.315 4.42725H42.0847ZM46.6872 23.9633H45.9804V7.48303H47.006C50.9247 7.48303 53.6534 9.48023 53.6534 15.5451C53.6403 21.1339 50.8788 23.9633 46.674 23.9633H46.6872Z" fill="black"></path></svg>