<svg xmlns="http://www.w3.org/2000/svg" width="100%" height="100%" viewBox="0 0 94 32" fill="none"><path d="M12.9332 27.0003H16.8657V4.4126H11.1457C5.39311 4.4126 2.37059 7.37012 2.37059 11.7252C2.37059 15.2027 4.0281 17.2502 6.98563 19.3627L1.85059 27.0003H6.10812L11.8282 18.4527L9.84565 17.1202C7.44063 15.4952 6.27062 14.2277 6.27062 11.4977C6.27062 9.09264 7.96063 7.46762 11.1782 7.46762H12.9332V27.0003ZM64.5761 25.8953V22.7427C63.3736 23.5552 61.3586 24.2703 59.4735 24.2703C56.646 24.2703 55.5735 22.9377 55.411 20.2077H64.7386V18.1602C64.7386 12.4727 62.2361 10.3276 58.3685 10.3276C53.656 10.3276 51.4135 13.9352 51.4135 18.8752C51.4135 24.5628 54.2085 27.3253 59.1485 27.3253C61.6185 27.3253 63.4386 26.6753 64.5761 25.8953ZM88.7563 27.3253C90.5438 27.3253 91.8113 27.0003 92.7538 26.3178V23.1652C91.7788 23.8477 90.6088 24.2703 88.9838 24.2703C86.2213 24.2703 85.0837 22.1252 85.0837 18.7452C85.0837 15.2027 86.4813 13.3827 89.0163 13.3827C90.5113 13.3827 91.9738 13.9027 92.7538 14.3902V11.1077C91.9413 10.6526 90.5113 10.3276 88.5938 10.3276C83.6537 10.3276 81.0862 13.8702 81.0862 18.8427C81.0862 24.3028 83.5887 27.3253 88.7563 27.3253ZM29.1508 10.6526V17.1202H23.9833V10.6526H20.1157V27.0003H23.9833V20.1752H29.1508V27.0003H33.0183V10.6526H29.1508ZM50.471 23.9453H48.7485V10.6526H37.4709V12.0502C37.4709 16.0477 37.2109 21.2152 35.8459 23.9453H34.6433V30.7378H38.2184V27.0003H46.8959V30.7378H50.471V23.9453ZM76.9262 27.0003H81.3137L75.1062 18.1927L80.5662 10.6526H76.6662L71.2061 18.1927V10.6526H67.3386V27.0003H71.2061V18.9727L76.9262 27.0003ZM58.3035 13.3827C60.221 13.3827 60.806 14.9752 60.806 17.0227V17.3477H55.411C55.5085 14.7477 56.451 13.3827 58.3035 13.3827ZM44.8809 23.9453H39.4209C40.4934 21.4752 40.7859 17.0227 40.7859 14.1952V13.7077H44.8809V23.9453Z" fill="black"></path></svg>